<svg version="1.2" xmlns="http://www.w3.org/2000/svg" viewBox="0 0 166 212" width="200" height="255">
	<title>13819091_5353309-ai</title>
	<style>
		.s0 { fill: #9fc749 } 
		.s1 { fill: #f4f4f4 } 
	</style>
	<g id="BACKGROUND">
	</g>
	<g id="OBJECTS">
		<g id="&lt;Group&gt;">
			<g id="&lt;Group&gt;">
			</g>
			<g id="&lt;Group&gt;">
				<g id="&lt;Group&gt;">
				</g>
			</g>
		</g>
		<g id="&lt;Group&gt;">
			<g id="&lt;Group&gt;">
			</g>
			<g id="&lt;Group&gt;">
				<g id="&lt;Group&gt;">
				</g>
				<g id="&lt;Group&gt;">
					<g id="&lt;Group&gt;">
					</g>
					<g id="&lt;Group&gt;">
					</g>
					<g id="&lt;Group&gt;">
					</g>
					<g id="&lt;Group&gt;">
					</g>
					<g id="&lt;Group&gt;">
					</g>
					<g id="&lt;Group&gt;">
					</g>
					<g id="&lt;Group&gt;">
					</g>
					<g id="&lt;Group&gt;">
					</g>
				</g>
				<g id="&lt;Group&gt;">
					<g id="&lt;Group&gt;">
					</g>
					<g id="&lt;Group&gt;">
					</g>
					<g id="&lt;Group&gt;">
					</g>
				</g>
			</g>
		</g>
		<g id="&lt;Group&gt;">
			<g id="&lt;Group&gt;">
			</g>
			<g id="&lt;Group&gt;">
				<g id="&lt;Group&gt;">
					<g id="&lt;Group&gt;">
					</g>
					<g id="&lt;Group&gt;">
					</g>
				</g>
			</g>
		</g>
		<g id="&lt;Group&gt;">
			<g id="&lt;Group&gt;">
			</g>
			<g id="&lt;Group&gt;">
				<path id="&lt;Path&gt;" class="s0" d="m164.5 123.4l-11.8-72.9c-1-6.2-6.4-10.8-12.7-10.8h-2.9l1.7 20.9c0.2 2.6-0.6 5.1-2.3 7.1-1.8 2-4.1 3.2-6.7 3.5q-0.4 0-0.9 0c-5 0-9.3-4-9.7-9.1l-1.8-22.4h-56.2l-1.9 22.5c-0.4 5-4.7 9-9.8 9q-0.4 0-0.8 0c-5.4-0.5-9.5-5.3-9-10.7l1.8-20.8h-6c-6.3 0-11.7 4.7-12.7 10.9l-22 146.4q0 0.2 0 0.4c112.7 21.7 144.3-71.6 144.3-71.6-1.1 40-18.3 67.1-39.7 85.4 38.8-8.8 65.8-46.6 59.1-87.8z"/>
				<g id="&lt;Group&gt;">
					<path id="&lt;Compound Path&gt;" fill-rule="evenodd" class="s1" d="m118.7 124.1h-46.7c1.9 9 9.2 14.4 19.7 14.4 4.7 0 8.6-0.9 12-2.8 3.4-2 7.8-1.3 10.4 1.7 3.3 3.8 2.6 9.8-1.6 12.4-5.7 3.6-12.9 5.5-21.3 5.5-23.8 0-39.3-15.7-39.3-37.1 0-21.5 15.8-37 36.7-37 20.3 0 35.9 14.2 35.9 37.3q0 0 0 0c0 3.1-2.7 5.6-5.8 5.6zm-46.9-12.2h33.9c-1.4-9-8-14.9-16.9-14.9-9.1 0-15.6 5.7-17 14.9z"/>
				</g>
				<path id="&lt;Path&gt;" class="s0" d="m133.9 61l-2.4-29.7c-1.4-17.3-15.5-30.4-32.8-30.7l-17.9-0.2q-0.3 0-0.5 0c-17.2 0-31.7 13.3-33.2 30.5l-2.5 30c-0.2 2.7 1.8 5.1 4.5 5.4q0.2 0 0.4 0c2.5 0 4.7-2 4.9-4.5l2.5-30c1.1-12.1 11.2-21.6 23.4-21.6q0.2 0 0.3 0l18 0.3c12.2 0.1 22.1 9.4 23.1 21.6l2.4 29.6c0.2 2.6 2.3 4.6 4.8 4.6q0.2 0 0.5 0c2.7-0.3 4.7-2.6 4.5-5.3z"/>
			</g>
		</g>
	</g>
</svg>